<svg id="stroke" xmlns="http://www.w3.org/2000/svg" xmlns:xlink="http://www.w3.org/1999/xlink" viewBox="0 0 234.87 233.47"><defs><style>.cls-1,.cls-3{fill:#639;}.cls-1,.cls-10,.cls-12,.cls-2,.cls-9{stroke:#000;}.cls-1,.cls-7,.cls-9{stroke-miterlimit:10;}.cls-1,.cls-10,.cls-12,.cls-9{stroke-width:3.73px;}.cls-2{fill:#050505;stroke-width:11.25px;}.cls-10,.cls-12,.cls-2{stroke-linecap:round;stroke-linejoin:round;}.cls-4{clip-path:url(#clip-path);}.cls-5{fill:#96c;}.cls-6{fill:#f9f;}.cls-7,.cls-9{fill:none;}.cls-7{stroke:#fff;stroke-width:3px;}.cls-8{fill:#f6f5f7;}.cls-10{fill:#f80;}.cls-11,.cls-12{fill:#ffd200;}</style><clipPath id="clip-path" transform="translate(-193.2 -303.04)"><path class="cls-1" d="M282.43,481.74a66.86,66.86,0,1,1,66.86-66.86A66.94,66.94,0,0,1,282.43,481.74Z"/></clipPath></defs><title>mugen-wapuu</title><path class="cls-2" d="M422.44,359.67c0-2-2.34-4.56-6.2-5.85s-8.45-6.85-9.48-8.19a3.72,3.72,0,0,0-1.65-1.29c-.38-.69-.67-1.24-.75-1.42-3.88-9.08-14.15-13.47-22.34-14.83a37,37,0,0,0-11.44-.45,4.69,4.69,0,0,0,.12-.49,2.6,2.6,0,0,0-.08-1.28,3.69,3.69,0,0,0-1.76-1.9,12.19,12.19,0,0,0-2.2,0c-2.53.39-5.41.2-10.9-1.13l-4.3-1.46c-14-14.6-36.7-14.33-57.06-10.36-.86.17-1.73.3-2.59.46h0c-6.32,1.23-14.51,4.74-21.7,8.85a1.5,1.5,0,0,0-.32-.05c-.18,0-.36.06-.62.12l-.5.1c-.32.07-.61.15-1,.26-6.26,1.94-11.36,3.15-18.58,4.76-3.92.88-12.86,1.94-15.63,2.18-2.93.33-8.13.72-11.31.88-4,.34-6.77.8-8.26,1.48a9.33,9.33,0,0,0-4.16,4.92,18.09,18.09,0,0,0,.41,9.51c.88,2.38,5.17,8.06,16,8.9,2.18.16,12.24-1.09,14.47-1.59l1.53-.35-.16.37h0l-.21.51a77.4,77.4,0,0,0-3.67,10.49c-2.87.11-6.82,2.38-9.31,5.38-1.1,1.32-2.85,4-2.31,6.86a7.52,7.52,0,0,0,.84,2.35,66.72,66.72,0,0,0-9.61,55,14.38,14.38,0,0,0-8.36-3,10.38,10.38,0,0,0-8.11,3.76c-2.25,2.76-3,6.57-2.15,10.73,2,9.86,18.86,28.27,30.69,31.11a11.77,11.77,0,0,0,2.71.36,4.74,4.74,0,0,0,4.26-2c1.54-2.36,1.06-6.24.31-8.89a66.6,66.6,0,0,0,44.44,17.7,9.4,9.4,0,0,0,2.21,5c1.39,1.44,3.42,2.13,6.19,2.13a16.75,16.75,0,0,0,2.09-.14l.45-.07.14,0c.5-.08.95-.18,1.37-.29l.58-.16c.45-.14.9-.3,1.33-.48l.09,0,.29-.12a13.9,13.9,0,0,0,1.56-.83l.16-.11a14.05,14.05,0,0,0,1.2-.86l.27-.23.06,0c.31-.27.62-.54.9-.82l.07-.07.22-.22c.32-.33.62-.68.89-1l.1-.12c.29-.37.57-.76.85-1.19l.11-.17h4.65a65.55,65.55,0,0,0,23.55-4.51l-.32.58C319.39,498.89,295,514.66,274,515.06c-10.5.19-18.63-3.76-23-11.06-5.76-9.69-14.77-13.2-20.7-11.68-4.33,1.12-6.91,4.77-7.08,10-.15,4.53,3.45,10.13,9.86,15.38,8.75,7.15,22.53,13.17,36.56,13.17A45,45,0,0,0,280,529.7c29.12-6.89,55.78-29.6,64.84-55.21l1.58-5c6.84-4.72,14.92-13.79,19.86-31.12.13.52.23,1,.29,1.43.38,2.72,2.6,5.62,4.5,5.71,2.52.11,5.6-.61,7-3.29a21.18,21.18,0,0,0,1.43-3.69,21,21,0,0,0,9.6-2.13c3.74-1.7,10.71-6.74,15.87-14.17,2.49,7.72,3.52,14.64,2,23.13-2.56,21.77-14.13,30.92-23.25,34.39-4.76,2-8.15,2.1-13.2,1.62-5.27-.5-12.85,3.89-12.7,9.53.24,8.47,6.43,13.14,13.31,12.21,10.42-1.4,25.51-7.46,33.18-21.11,19-29.18,11.22-61,5.68-69.93,4-12.66,3.2-26.15,3.2-30.68A129.23,129.23,0,0,0,412,366.58a12.6,12.6,0,0,0,2.48-.24C421.51,364.93,422.44,361.66,422.44,359.67ZM368,356.72a6.37,6.37,0,0,0,.51,3.52l-3.3,0c-.15-.47-.3-.91-.45-1.37A6,6,0,0,0,368,356.72Zm-49.42-2.06-.45-.12Zm5.4,1.69q-.93-.37-1.9-.69Q323.08,356,324,356.35Zm-3-1-.87-.27Zm-7-1.54h0Zm2.08.34.19,0Zm33.1,57.94c.05,1.06.08,2.13.08,3.2s0,2-.08,3c0-1,.08-2,.08-3S349.26,413.12,349.21,412.06Zm0,7.2q-.06,1-.16,2.07C349.07,420.64,349.12,420,349.17,419.26Zm-.26,3.14q-.14,1.28-.33,2.55C348.71,424.1,348.82,423.25,348.91,422.4Zm-.6,4.22c-.06.33-.12.66-.18,1Q348.23,427.11,348.31,426.62Zm-.56,2.9,0,.07Zm-.82-31.83c0,.16.09.32.14.48C347,398,347,397.84,346.93,397.68Zm.58,2.3c.09.4.19.81.28,1.21C347.71,400.79,347.61,400.39,347.51,400Zm.61,2.86c.09.49.18,1,.26,1.47C348.3,403.82,348.21,403.33,348.12,402.84Zm.5,3c.08.56.15,1.13.22,1.69C348.77,407,348.7,406.4,348.62,405.83Zm.37,3.08c.06.67.11,1.34.15,2C349.1,410.25,349,409.58,349,408.91Zm-3.6-16.18h0l3.7,3.34Zm-15.83-46.05a13.79,13.79,0,0,0,1,1.16l-1.71.41A9.87,9.87,0,0,0,329.55,346.68ZM348.22,435l-.12-.07Zm1.34.91,0,0Zm1.32,1.16-.21-.2ZM358,330.41c-.39-.69-.79-1.37-1.19-2a39.18,39.18,0,0,0-4.37-6A20.28,20.28,0,0,1,358,330.41Zm-60.46,19.72a66.76,66.76,0,0,0-14.58-1.72A55.25,55.25,0,0,1,297.51,350.13Zm-33.69.86c.58-.16,1.16-.3,1.75-.44a66.7,66.7,0,0,0-25.13,12.73l-.27-.13C244.7,359.73,254.45,353,263.82,351Zm3-.74-.74.17Zm77.08,121c.84-.53,1.68-1.08,2.52-1.66C345.56,470.15,344.72,470.69,343.89,471.22Zm-7.73,4.29.89-.43Zm2.21-1.1c.71-.37,1.43-.76,2.15-1.17Q339.43,473.86,338.36,474.42Zm2.92-1.62c.61-.35,1.21-.71,1.82-1.09Q342.2,472.27,341.29,472.8Z" transform="translate(-193.2 -303.04)"/><g id="ball"><path class="cls-3" d="M282.43,481.74a66.86,66.86,0,1,1,66.86-66.86A66.94,66.94,0,0,1,282.43,481.74Z" transform="translate(-193.2 -303.04)"/><g class="cls-4"><circle class="cls-5" cx="90.07" cy="113.16" r="51.06"/><circle class="cls-6" cx="90.39" cy="113.16" r="13.84"/><path class="cls-7" d="M247,441.8c-4-11.38,9.15-32.07,29.47-46.21s40.06-16.38,44.1-5-9.15,32.07-29.47,46.21S251,453.18,247,441.8Z" transform="translate(-193.2 -303.04)"/><path class="cls-7" d="M320.22,441.8c4-11.38-9.15-32.07-29.47-46.21s-40.06-16.38-44.1-5,9.15,32.07,29.47,46.21S316.18,453.18,320.22,441.8Z" transform="translate(-193.2 -303.04)"/><circle class="cls-8" cx="127.51" cy="94.82" r="5.62"/><circle class="cls-8" cx="53.61" cy="94.82" r="5.62"/><circle class="cls-8" cx="127.51" cy="132.17" r="5.62"/><circle class="cls-8" cx="53.3" cy="132.17" r="5.62"/></g><path class="cls-9" d="M282.43,481.74a66.86,66.86,0,1,1,66.86-66.86A66.94,66.94,0,0,1,282.43,481.74Z" transform="translate(-193.2 -303.04)"/></g><g id="wapuu"><path class="cls-10" d="M346.41,469.57a74.65,74.65,0,0,1-15.49,8.22l-.32.58C319.39,498.89,295,514.66,274,515.06c-10.5.19-18.63-3.76-23-11.06-5.76-9.69-14.77-13.2-20.7-11.68-4.33,1.12-6.91,4.77-7.08,10-.15,4.53,3.45,10.13,9.86,15.38,8.75,7.15,22.53,13.17,36.56,13.17A45,45,0,0,0,280,529.7c29.12-6.89,55.78-29.6,64.84-55.21l1.58-5Z" transform="translate(-193.2 -303.04)"/><path class="cls-10" d="M409.65,411.42c5.53,7.94,14.28,40.66-5.25,70.6-7.67,13.66-22.75,19.72-33.18,21.11-6.88.92-13.08-3.75-13.31-12.21-.16-5.64,7.43-10,12.7-9.53,5,.48,8.44.42,13.2-1.62,9.11-3.47,20.69-12.62,23.25-34.39,1.53-8.67.43-15.71-2.18-23.63" transform="translate(-193.2 -303.04)"/><path class="cls-11" d="M392.31,357.55s8.67,21.94,8.93,52.55c0,0-30.87,6.63-34.44,9.95l-6.12-59.95S387.72,361.12,392.31,357.55Z" transform="translate(-193.2 -303.04)"/><path class="cls-12" d="M307.55,353.31a46.54,46.54,0,0,1,16.46,3,46.72,46.72,0,0,0-17-3.05h0c-11.3,0-22.16,3.62-29.05,9.69-5.34,4.7-5.62,8.32-4.92,10.53,1,3.18,4.73,5.56,9.48,6.06a13.44,13.44,0,0,0,1.38.07c3.13,0,7.19-.9,11.48-1.85,5.24-1.16,11.19-2.48,16.72-2.48a27.71,27.71,0,0,1,5.67.54c11.56,2.39,19.41,9.49,31.29,20.23l1.48,1.33-1.48-1.33-3.7-3.34a66.68,66.68,0,0,1,1.2,41.33,14.6,14.6,0,0,1,5.21,4c-3.13-4-10.15-6.67-17.87-6.67-1.12,0-2.24.06-3.33.17a29.74,29.74,0,0,0-24.25,16.56l-1.13,2.25h0c.14.4.26.78.36,1.13.22.74.42,1.48.61,2.26l0,.15,0,.09c.18.75.34,1.42.47,2.06a34.33,34.33,0,0,1-1.14,19.12l0,.09a17.78,17.78,0,0,1-.48,1.89c-.07.23-.15.48-.24.75l0,.05c-.12.35-.27.74-.47,1.2-.08.19-.16.37-.24.56l-.16.33-.05.11q-.17.35-.36.71l-.23.41c-.16.29-.34.58-.52.87l0,.08,0,0h4.65c9.37,0,23.75-2.21,39-12.73,9.37-6.45,21.12-21.05,23.88-54,1.7-20.29-.67-43.22-6.05-58.43-1.57-4.44-5.79-15.09-6.17-15.86" transform="translate(-193.2 -303.04)"/><path class="cls-12" d="M394.84,407.26s-8.26-4.52-14.66-.95c-6.66,3.72-8.83,6-10.88,8.2s-3.78,4.57-2.68,8.51,1.89,12,7.09,14.19,10.25,1.58,15.45-.79,16.71-11.19,20.81-24,3.31-26.48,3.31-31.06-1.42-23.49-5.68-32.63c0,0-3-5.21-3.25-5.86-3.88-9.08-14.15-13.47-22.34-14.83s-14-1-21.66,3.07-7,14.32-7,15.52,1.36,9.21,6.65,11.6,8-1.53,8-1.53c0,1.36-1,4.77,6.31,8.18a15.14,15.14,0,0,0,13.13.17" transform="translate(-193.2 -303.04)"/><path d="M368.82,350.06c-2-.23-2.67,1.19-1.52,2.59s1.18,1.58,3.24,1.82c2.24.25,3.95-1.23,2.32-2.46A8.69,8.69,0,0,0,368.82,350.06Z" transform="translate(-193.2 -303.04)"/><circle cx="175.23" cy="39.35" r="2.2"/><circle cx="188.51" cy="45.79" r="2.33"/><path class="cls-10" d="M406.76,345.63c1,1.34,5.62,6.9,9.48,8.19s6.2,3.86,6.2,5.85-.94,5.27-8,6.67-13.81-3.51-15.21-8.07-1.64-9.48-.35-11S404.07,342.12,406.76,345.63Z" transform="translate(-193.2 -303.04)"/><path class="cls-12" d="M383.19,369.78S373.58,362.85,362,362c-8.62-.6-9.27,1.59-9.74,2.64-1,2.29,1.69,6.19,6.11,7.93s11.83,5,14.36,7.26a36.39,36.39,0,0,1,6,6.94" transform="translate(-193.2 -303.04)"/><path class="cls-12" d="M374.73,409.77c-1.76-1.86-7-6.91-12.52-4.4-6.1,2.79-7.12,5.61-6.15,10.09,1.07,4.93,3.56,7.66,4.89,9.62s5.12,10.83,5.66,14.76c.38,2.72,2.6,5.62,4.5,5.71,2.52.11,5.6-.61,7-3.29a29.59,29.59,0,0,0,2.3-17.34C379,417.66,377.56,412.76,374.73,409.77Z" transform="translate(-193.2 -303.04)"/><path class="cls-10" d="M351.06,321.21l4.7,1.6c5.49,1.33,8.37,1.52,10.9,1.13a12.19,12.19,0,0,1,2.2,0,3.69,3.69,0,0,1,1.76,1.9,2.6,2.6,0,0,1,.08,1.28,4.88,4.88,0,0,1-.75,1.87c-2,2.15-2.94,3.6-9.52,4.32l-1.75.19C358.26,329.44,355.69,324.93,351.06,321.21Z" transform="translate(-193.2 -303.04)"/><path class="cls-12" d="M316.39,353.79c5.76.29,11.36-1.6,13.16-7.11,5.66,7.23,18.82,8.43,23.27,7.7a34.39,34.39,0,0,0,5.85-1.39,10.24,10.24,0,0,0,4.75-7.66c.27-4.5-3.19-11.15-6.64-17-12.86-21.63-39.16-21.9-62.38-17.38-.86.17-1.73.3-2.59.46h0c-10.45,2-26,10.28-33.69,17.18h0c-.68.62-1.34,1.26-2,1.9-.48.47-.94,1-1.4,1.44l0,0h0a63.77,63.77,0,0,0-12.65,19.77h0l-.21.51A68.82,68.82,0,0,0,237.5,365s12.31-10.33,26.21-14.58c15.69-4.45,34.74-2.1,44.08,2.87C307.8,353.31,313.2,353.63,316.39,353.79Z" transform="translate(-193.2 -303.04)"/><path class="cls-10" d="M269.17,320.37c.26-.06.43-.09.62-.12a4.31,4.31,0,0,1,1.74.67,5.45,5.45,0,0,1,1.33,2c.22.66-.24,2.16-2.74,7.4l-2.6,4.25c-10.52,13.61-20.77,15.84-26.83,17.19-2.23.5-12.29,1.75-14.47,1.59-10.85-.84-15.14-6.52-16-8.9a18.09,18.09,0,0,1-.41-9.51,9.33,9.33,0,0,1,4.16-4.92c1.49-.68,4.23-1.14,8.26-1.48,3.18-.16,8.38-.54,11.31-.88,2.77-.24,11.72-1.31,15.63-2.18,7.22-1.61,12.32-2.82,18.58-4.76.35-.11.63-.19,1-.26Z" transform="translate(-193.2 -303.04)"/><path class="cls-12" d="M238.4,362.74c-2.88,0-7,2.32-9.54,5.41-1.1,1.32-2.85,4-2.31,6.86.62,3.31,2.81,5.2,6,5.2a11.36,11.36,0,0,0,7.66-3.55,10.11,10.11,0,0,0,3-9.09,6.08,6.08,0,0,0-3.44-4.59,3.83,3.83,0,0,0-1.42-.25Z" transform="translate(-193.2 -303.04)"/><path d="M326.2,335.21c-3.55,1.08-3.65,4-.67,5.49s3.15,1.82,6.81.7c4-1.21,5.77-5,2.12-5.85S328.19,334.61,326.2,335.21Z" transform="translate(-193.2 -303.04)"/><circle cx="118.81" cy="26.91" r="3.98"/><circle cx="154.31" cy="28.72" r="3.3"/><path class="cls-12" d="M286.44,430.27a7.08,7.08,0,0,0-4,1.25c-7.4,4.93-5.16,14.3-3,23.36.6,2.53,1.23,5.14,1.6,7.54a56,56,0,0,1,.24,9.94c-.19,5.81-.39,11.8,2.49,14.77,1.39,1.44,3.42,2.13,6.19,2.13a16.76,16.76,0,0,0,2.09-.14l.45-.07.14,0c.5-.08.95-.18,1.37-.29l.58-.16c.45-.14.9-.3,1.33-.48l.09,0,.29-.12a13.91,13.91,0,0,0,1.56-.83l.16-.11a14.06,14.06,0,0,0,1.2-.86l.27-.23.06,0c.31-.27.62-.54.9-.82l.07-.07.22-.22c.32-.33.62-.68.89-1l.1-.12c.29-.37.57-.76.85-1.19l.13-.2,0-.08c.18-.29.36-.58.52-.87l.23-.41q.19-.36.36-.71l.05-.11.16-.33c.09-.19.16-.38.24-.56.19-.46.34-.86.47-1.2l0-.05c.09-.27.17-.52.24-.75a17.78,17.78,0,0,0,.48-1.89l0-.09a34.33,34.33,0,0,0,1.14-19.12c-.13-.64-.29-1.32-.47-2.06l0-.09,0-.15c-.2-.78-.4-1.52-.61-2.26-1.8-6.47-10.9-21.23-19.13-21.23Z" transform="translate(-193.2 -303.04)"/><path class="cls-12" d="M209.43,429.36a14.6,14.6,0,0,1,8.83,3.29c5.41,4.17,15.38,23.29,18.25,29.86,1,2.21,2.32,7.74.34,10.77a4.74,4.74,0,0,1-4.26,2,11.77,11.77,0,0,1-2.71-.36c-11.83-2.84-28.65-21.25-30.69-31.11-.86-4.16-.1-8,2.15-10.73a10.38,10.38,0,0,1,8.11-3.76" transform="translate(-193.2 -303.04)"/></g></svg>